<?xml version="1.0" encoding="UTF-8" standalone="no"?>
<svg xmlns="http://www.w3.org/2000/svg" viewBox="0 0 314.743 358.91"><path d="M191.562 0c-26.74 4.041-71.251 21.356-78.79 40.401-19.398 16.116-1.186 75.272-15.923 79.268-11.197-17.65-37.642-38.954-48.974-36.184 10.682 40.016-15.138 66.264-28.416 93.117C3.274 202.685-.66 212.832.086 240.094c-.727 59.258 74.76 118.764 161.693 118.816 69.116-.814 154.178-49.108 152.951-127.094.726-96.5-52.026-100.934-52.252-148.257-13.117 1.395-40.743 18.244-44.681 34.684-8.818-1.956-1.082-50.699-36.816-78.5-2.194-16.079 6.427-24.328 10.581-39.743z" fill="#0180ff"/></svg>
