<?xml version="1.0" encoding="UTF-8" standalone="no"?>
<svg xmlns="http://www.w3.org/2000/svg" viewBox="0 0 284.651 31.713"><text id="volatile-logo-text" x="615.749" y="166.441" transform="matrix(1.69062 0 0 1.81638 -1040.956 -279.839)" font-size="10.419" font-family="Audiowide">VOLATILE</text><path d="M117.06 31.713c-3.457-.01-13.03-9.494-13.052-19.004-.053-4.613 2.765-9.809 9.95-12.189 6.004-1.801 12.416 1.251 15.924 6.458 3.037 5.425 1.54 12.312-3.774 15.013-4.138 1.98-11.532.504-11.78-1.11-.36-2.107 7.94-.488 9.742-3.99 2.201-3.138-.916-8.19-6.224-8.197-4.969.077-5.68 4.728-4.96 8.531.991 6.091 6.008 14.413 4.175 14.488z" fill="#0180ff"/><text x="670.226" y="172.522" font-size="10.799" font-family="Audiowide" fill="#0180ff" stroke-width=".81" transform="matrix(1.75237 0 0 1.75237 -1040.956 -279.839)">ROGRAMMING</text></svg>
