<?xml version="1.0" encoding="UTF-8" standalone="no"?>
<svg xmlns="http://www.w3.org/2000/svg" viewBox="0 0 125 125"><path d="M73.617 4.152c-8.694 1.314-23.167 6.943-25.619 13.136-6.307 5.24-.385 24.473-5.177 25.773-3.64-5.738-12.238-12.665-15.923-11.765 3.474 13.01-4.921 21.546-9.239 30.276-5.263 8.481-6.541 11.78-6.3 20.644-.235 19.267 24.308 38.615 52.574 38.632 22.472-.264 50.129-15.966 49.73-41.324.236-31.376-16.916-32.818-16.99-48.204-4.263.454-13.246 5.932-14.526 11.278-2.867-.637-.351-16.484-11.97-25.524-.714-5.227 2.09-7.91 3.44-12.922zm-11.885 47.42c10.326-.131 20.355 5.778 26.352 14.677 6.39 11.415 3.24 25.904-7.943 31.585-8.705 4.167-24.26 1.062-24.783-2.331-.75-4.435 16.709-1.03 20.498-8.399 4.631-6.6-1.928-17.226-13.092-17.243-10.457.163-11.952 9.946-10.438 17.948 2.086 12.815 12.64 30.325 8.784 30.482-7.273-.024-27.417-19.975-27.462-39.984-.116-9.705 5.818-20.638 20.933-25.645a25.951 25.951 0 017.151-1.09z" fill="#0180ff"/></svg>
